<?xml version="1.0" standalone="no"?><!DOCTYPE svg PUBLIC "-//W3C//DTD SVG 1.1//EN" "http://www.w3.org/Graphics/SVG/1.1/DTD/svg11.dtd"><svg class="icon" width="200px" height="183.35px" viewBox="0 0 1117 1024" version="1.1" xmlns="http://www.w3.org/2000/svg"><path d="M731.591311 20.972103c-28.222796 0-66.980391 16.969597-86.120579 37.705655l-42.652341 46.208414a49.040956 49.040956 0 0 1-71.090657 1.421402l-49.05635-49.051219C462.71017 37.300273 423.290622 20.972103 395.067826 20.972103H86.059001c-28.222796 0-51.314174 23.091378-51.314174 51.314174v744.045261c0 28.222796 23.091378 51.314174 51.314174 51.314174h309.013956c28.222796 0 67.642344 16.32817 87.598427 36.279121l49.051219 49.05635a49.035825 49.035825 0 0 0 71.090657-1.416271l42.652341-46.213545c19.140187-20.736058 57.897783-37.705655 86.120578-37.705655h309.008825c28.222796 0 51.314174-23.091378 51.314174-51.314174V72.286277c0-28.222796-23.091378-51.314174-51.314174-51.314174h-309.003693z" fill="#4E6070" /><path d="M365.295342 671.168871c0 26.688502-23.091378 48.522683-51.314174 48.522683H187.394232c-28.222796 0-51.314174-21.834181-51.314174-48.522683s23.091378-48.522683 51.314174-48.522683h126.581805c28.227927 0 51.319305 21.834181 51.319305 48.522683zM365.295342 449.578873c0 26.688502-23.091378 48.522683-51.314174 48.522683H187.394232c-28.222796 0-51.314174-21.834181-51.314174-48.522683 0-26.678239 23.091378-48.517552 51.314174-48.517552h126.581805c28.227927-0.010263 51.319305 21.82905 51.319305 48.517552zM365.295342 226.788124c0 26.688502-23.091378 48.522683-51.314174 48.522683H187.394232c-28.222796 0-51.314174-21.834181-51.314174-48.522683 0-26.678239 23.091378-48.517552 51.314174-48.517552h126.581805c28.227927-0.005131 51.319305 21.82905 51.319305 48.517552zM1000.108121 671.168871c0 26.688502-23.091378 48.522683-51.314174 48.522683H822.207011c-28.222796 0-51.314174-21.834181-51.314174-48.522683s23.091378-48.522683 51.314174-48.522683h126.586936c28.222796 0 51.314174 21.834181 51.314174 48.522683zM1000.108121 449.578873c0 26.688502-23.091378 48.522683-51.314174 48.522683H822.207011c-28.222796 0-51.314174-21.834181-51.314174-48.522683 0-26.678239 23.091378-48.517552 51.314174-48.517552h126.586936c28.222796-0.010263 51.314174 21.82905 51.314174 48.517552zM1000.108121 226.788124c0 26.688502-23.091378 48.522683-51.314174 48.522683H822.207011c-28.222796 0-51.314174-21.834181-51.314174-48.522683 0-26.678239 23.091378-48.517552 51.314174-48.517552h126.586936c28.222796-0.005131 51.314174 21.82905 51.314174 48.517552z" fill="#00CCC6" /></svg>