<?xml version="1.0" standalone="no"?><!DOCTYPE svg PUBLIC "-//W3C//DTD SVG 1.1//EN" "http://www.w3.org/Graphics/SVG/1.1/DTD/svg11.dtd"><svg class="icon" width="200px" height="200.00px" viewBox="0 0 1024 1024" version="1.1" xmlns="http://www.w3.org/2000/svg"><path d="M410.431149 396.800306c64.565609-21.727212 80.953912-103.165146 45.781642-196.366283C395.861596 40.525847 340.717305 35.406947 269.057595 44.759818 167.285846 58.033756 84.997207 151.68958 75.331433 263.136881c-9.621772 76.861725 15.420258 199.778882 150.873098 386.342495 216.2503 297.800683 491.859304 415.838507 649.234921 310.434148 57.62796-31.999236 83.916713-90.032992 88.947609-128.388073 8.976409-68.369338-59.529824-142.820731-173.304342-197.422331-113.774518-54.621156-153.087866 2.224546-175.235542 49.996056 0 0-11.860985 30.464055-15.420258 56.689251-8.262599 60.800993-74.426947 16.358968-74.426948 16.358967-58.996911-36.179427-210.461591-170.160644-250.400744-298.133142 0 0-18.945308-59.500489 38.325746-51.228112 48.524434 7.006097 96.506176-10.985834 96.506176-10.985834z" fill="#4E6070" /></svg>