<?xml version="1.0" standalone="no"?><!DOCTYPE svg PUBLIC "-//W3C//DTD SVG 1.1//EN" "http://www.w3.org/Graphics/SVG/1.1/DTD/svg11.dtd"><svg class="icon" width="200px" height="200.00px" viewBox="0 0 1024 1024" version="1.1" xmlns="http://www.w3.org/2000/svg"><path d="M866.964 446.72c-10.428 19.372-10.224 50.952 0.456 70.184l101.148 182.068c10.688 19.232 1.42 34.964-20.58 34.964H512c-22 0-40-18-40-40v-432c0-22 18-40 40-40h436c22 0 31.464 15.848 21.036 35.22l-102.072 189.564z" fill="#2FA1A1" /><path d="M188 161.94c0-22 18-40 40-40h364c22 0 40 18 40 40v412.416c0 22-18 40-40 40H228c-22 0-40-18-40-40V161.94z" fill="#00CCC6" /><path d="M238 953.936v-864c0-27.616-22.384-50-50-50s-50 22.384-50 50v864c0 27.604 22.384 50 50 50s50-22.38 50-50z" fill="#4E6070" /></svg>